HIERARCHY
ROOT SimulationBone
{
	OFFSET 0.000000 0.000000 0.000000
	CHANNELS 6 Xposition Yposition Zposition Zrotation Yrotation Xrotation 
	JOINT Hips
	{
		OFFSET 0.000000 0.000000 0.000000
		CHANNELS 6 Xposition Yposition Zposition Zrotation Yrotation Xrotation 
		JOINT LeftUpLeg
		{
			OFFSET 0.103456 1.857832 10.548506
			CHANNELS 3 Zrotation Yrotation Xrotation
			JOINT LeftLeg
			{
				OFFSET 43.499996 -0.000050 0.000004
				CHANNELS 3 Zrotation Yrotation Xrotation
				JOINT LeftFoot
				{
					OFFSET 42.372196 0.000023 -0.000001
					CHANNELS 3 Zrotation Yrotation Xrotation
					JOINT LeftToe
					{
						OFFSET 17.299999 -0.000001 0.000005
						CHANNELS 3 Zrotation Yrotation Xrotation
						End Site
						{
							OFFSET 0.000000 0.000000 0.000000
						}
					}
				}
			}
		}
		JOINT RightUpLeg
		{
			OFFSET 0.103461 1.857838 -10.548502
			CHANNELS 3 Zrotation Yrotation Xrotation
			JOINT RightLeg
			{
				OFFSET 43.500053 -0.000023 0.000017
				CHANNELS 3 Zrotation Yrotation Xrotation
				JOINT RightFoot
				{
					OFFSET 42.372261 -0.000019 0.000013
					CHANNELS 3 Zrotation Yrotation Xrotation
					JOINT RightToe
					{
						OFFSET 17.299999 -0.000002 0.000004
						CHANNELS 3 Zrotation Yrotation Xrotation
						End Site
						{
							OFFSET 0.000000 0.000000 0.000000
						}
					}
				}
			}
		}
		JOINT Spine
		{
			OFFSET 6.901962 -2.603720 0.000005
			CHANNELS 3 Zrotation Yrotation Xrotation
			JOINT Spine1
			{
				OFFSET 12.588104 -0.000017 -0.000004
				CHANNELS 3 Zrotation Yrotation Xrotation
				JOINT Spine2
				{
					OFFSET 12.343203 0.000008 0.000001
					CHANNELS 3 Zrotation Yrotation Xrotation
					JOINT Neck
					{
						OFFSET 25.832893 0.000002 -0.000003
						CHANNELS 3 Zrotation Yrotation Xrotation
						JOINT Head
						{
							OFFSET 11.766610 0.000004 -0.000002
							CHANNELS 3 Zrotation Yrotation Xrotation
							End Site
							{
								OFFSET 0.000000 0.000000 0.000000
							}
						}
					}
					JOINT LeftShoulder
					{
						OFFSET 19.745901 -1.480358 6.000100
						CHANNELS 3 Zrotation Yrotation Xrotation
						JOINT LeftArm
						{
							OFFSET 11.284128 -0.000004 -0.000015
							CHANNELS 3 Zrotation Yrotation Xrotation
							JOINT LeftForeArm
							{
								OFFSET 33.000053 0.000025 0.000029
								CHANNELS 3 Zrotation Yrotation Xrotation
								JOINT LeftHand
								{
									OFFSET 25.200005 0.000009 -0.000002
									CHANNELS 3 Zrotation Yrotation Xrotation
									End Site
									{
										OFFSET 0.000000 0.000000 0.000000
									}
								}
							}
						}
					}
					JOINT RightShoulder
					{
						OFFSET 19.746098 -1.480389 -6.000077
						CHANNELS 3 Zrotation Yrotation Xrotation
						JOINT RightArm
						{
							OFFSET 11.284138 -0.000023 -0.000010
							CHANNELS 3 Zrotation Yrotation Xrotation
							JOINT RightForeArm
							{
								OFFSET 33.000103 0.000022 0.000003
								CHANNELS 3 Zrotation Yrotation Xrotation
								JOINT RightHand
								{
									OFFSET 25.199776 0.000131 0.000429
									CHANNELS 3 Zrotation Yrotation Xrotation
									End Site
									{
										OFFSET 0.000000 0.000000 0.000000
									}
								}
							}
						}
					}
				}
			}
		}
	}
}
MOTION
Frames: 5
Frame Time: 0.033333
120.027947 0.000000 487.930953 0.000000 83.127418 0.000000 1.483966 89.959068 1.171296 96.410028 3.763813 -176.044441 165.423876 -4.405316 -178.149734 -73.610281 4.888949 -6.766258 84.443077 3.753921 -3.852220 21.454551 0.003086 0.000004 177.457030 -10.876403 -176.654961 -24.208521 2.150727 11.060626 86.453912 -8.216009 -2.885695 21.454558 -0.003101 -0.000018 8.595647 1.217320 0.196564 7.184997 2.420034 0.468244 6.866590 2.422948 0.453621 -12.781541 -1.218549 -2.349565 -3.165627 2.244105 -3.248526 172.745811 -71.172361 6.174736 -11.692679 54.739919 48.854017 -25.133780 -15.134080 1.152772 15.744153 -4.029275 -6.946653 144.403573 69.187392 -35.429226 -9.473424 -52.662763 -35.912247 -37.119390 22.265677 -1.883579 14.598571 7.177526 -4.451796 
120.565896 0.000000 483.737901 0.000000 82.584270 0.000000 0.773910 89.929237 1.233735 96.108584 3.799895 -176.480444 160.538938 -3.059798 -177.534143 -68.013453 4.354019 -4.747343 83.966910 2.041263 -5.446547 21.454558 0.003092 -0.000003 -179.870737 -10.869292 -176.901804 -23.150706 2.409141 10.302416 87.469786 -7.653220 -2.913576 21.454558 -0.003106 -0.000016 8.623433 1.119950 0.442734 7.244576 2.209988 0.954714 6.926276 2.215853 0.941343 -12.766000 -1.902062 -2.032544 -3.647393 2.390571 -3.254171 173.975314 -71.349174 4.902880 -8.775193 54.145245 51.041164 -27.502348 -15.765379 1.232546 15.175576 -5.353959 -8.664931 143.760100 69.497769 -36.064177 -11.369004 -51.392263 -32.466901 -42.943080 23.138282 -2.101628 13.481108 8.462012 -7.160710 
121.135404 0.000000 479.570479 0.000000 82.102388 0.000000 0.271625 89.621483 1.429833 95.642244 4.235933 -176.926860 156.533620 -2.537295 -177.472794 -60.092961 3.569402 -3.002213 82.835626 0.908244 -5.034576 21.454551 0.003089 0.000002 -177.359317 -11.355190 -177.420680 -22.291280 2.649109 9.777149 88.729027 -7.242158 -2.926041 21.454558 -0.003112 -0.000017 8.571506 1.110144 0.648721 7.144414 2.178159 1.364815 6.826169 2.186473 1.351637 -12.353329 -2.399981 -1.739428 -4.496343 2.613859 -3.235168 174.719886 -71.120533 4.142816 -5.534325 53.340116 53.099028 -29.993205 -16.545428 1.328562 15.152853 -6.504423 -9.667094 143.306808 69.410507 -36.534327 -12.655747 -49.742099 -29.002076 -48.852764 23.247406 -2.294965 12.723807 9.035247 -10.427630 
121.733987 0.000000 475.426380 0.000000 81.679497 0.000000 -0.062080 89.056862 1.702616 95.370805 4.785105 -177.364349 153.980864 -2.604896 -176.746458 -50.454440 1.606421 -2.580238 81.951396 0.276119 -6.700042 21.454553 0.003096 -0.000002 -174.643935 -12.082600 -178.415428 -21.656271 2.801145 9.560593 90.321882 -7.014980 -2.847587 21.454558 -0.003099 -0.000016 8.570377 1.130964 0.801206 7.145366 2.210356 1.670863 6.827167 2.220553 1.657478 -12.242933 -2.764679 -1.387455 -4.958361 2.903016 -3.118712 175.154805 -70.915313 3.700694 -2.917567 52.772757 54.002532 -32.025688 -17.062629 1.402847 14.640690 -7.997259 -10.169569 142.548097 69.566078 -37.298051 -14.597202 -48.564718 -25.651493 -53.327781 23.195608 -2.446175 11.600181 9.980980 -11.409412 
122.359162 0.000000 471.303298 0.000000 81.313265 0.000000 -0.343230 88.368736 1.993645 94.724606 5.198483 -177.969302 151.653217 -2.633689 -179.010201 -40.017320 1.275501 -2.165601 79.767273 0.186289 -5.504534 21.454553 0.003089 0.000001 -172.177348 -12.659693 -179.656665 -20.945400 2.820288 9.387689 92.063232 -6.816179 -2.740782 21.454558 -0.003122 -0.000019 8.485297 1.118419 0.923910 6.977243 2.179194 1.913733 6.659085 2.190843 1.900560 -12.536213 -2.948214 -1.033313 -5.038628 2.830710 -2.838193 176.132588 -70.946391 2.691878 -1.240573 52.677913 54.361472 -33.345895 -17.339192 1.448982 14.074190 -9.394958 -9.772064 141.917698 69.652705 -37.935526 -16.774994 -47.502572 -22.833328 -56.469883 23.098919 -2.554641 10.339368 11.445289 -12.251301 
